<svg width="16" height="17" fill="none" xmlns="http://www.w3.org/2000/svg"><path d="M12.9 1.797h0c.437.17.763.382 1.093.711.33.33.54.655.71 1.093.13.332.271.81.309 1.643.039.855.047 1.117.047 3.254s-.008 2.4-.047 3.255c-.038.833-.18 1.309-.308 1.64a3.002 3.002 0 01-.715 1.097 2.97 2.97 0 01-1.09.708c-.33.13-.809.271-1.643.31h0c-.855.038-1.116.047-3.255.047s-2.401-.009-3.256-.047h0c-.832-.039-1.308-.18-1.64-.309a3 3 0 01-1.095-.711 3 3 0 01-.714-1.096c-.128-.33-.27-.807-.307-1.64l11.91-9.955zm0 0c-.332-.128-.809-.271-1.644-.308-.855-.04-1.118-.047-3.255-.047h-.218V1.44h-.5c-1.496.001-1.79.011-2.538.046h0c-.834.038-1.31.18-1.643.309a2.97 2.97 0 00-1.093.71 2.98 2.98 0 00-.71 1.093c-.13.332-.272.81-.31 1.644h0m11.91-3.445L.99 5.242m0 0C.95 6.097.942 6.357.942 8.496c0 2.139.008 2.401.047 3.255V5.242zm.708 9.561a3.429 3.429 0 01-.811-1.244L8 1c2.169 0 2.432.01 3.274.047.804.037 1.332.163 1.785.34h0l.005.001a3.4 3.4 0 011.236.805h0l.007.007c.355.348.63.77.805 1.236h0l.002.005c.175.451.3.979.338 1.783.038.842.048 1.106.048 3.276s-.01 2.434-.047 3.275c-.038.805-.164 1.332-.34 1.784a3.429 3.429 0 01-.81 1.244h0l-.003.004c-.348.355-.77.63-1.235.805h0l-.005.002c-.452.176-.98.3-1.785.338C10.432 15.99 10.17 16 8 16s-2.434-.01-3.276-.047c-.805-.037-1.33-.163-1.784-.34h0a3.405 3.405 0 01-1.243-.81h0zM4.726 1.047C5.567 1.01 5.832 1 7.998 1L.886 13.559c-.176-.452-.3-.979-.339-1.784C.51 10.934.5 10.67.5 8.501c0-2.17.01-2.435.047-3.278.037-.803.163-1.33.339-1.781h0l.002-.006A3.4 3.4 0 011.693 2.2h0l.007-.007a3.4 3.4 0 011.236-.805h0l.005-.002c.452-.176.979-.3 1.785-.339zm7.369 2.758a.46.46 0 11.352.85.46.46 0 01-.352-.85zm-6.69 2.124a3.609 3.609 0 115.064 5.143A3.609 3.609 0 015.405 5.93zm3.808-.355a3.167 3.167 0 10-2.424 5.852 3.167 3.167 0 002.424-5.852z" fill="#fff" stroke="#fff"/></svg>